<svg xmlns="http://www.w3.org/2000/svg" width="17.739" height="12.554" viewBox="0 0 17.739 12.554"><defs><style>.a{fill:#b1b4cc;}</style></defs><g transform="translate(0 -5.707)"><g transform="translate(0 5.707)"><path class="a" d="M17.637,9.592a.456.456,0,0,0-.352-.168H15.559a5.885,5.885,0,0,0-1.612-2.64c-2.182-1.436-7.971-1.436-10.154,0a5.914,5.914,0,0,0-1.612,2.64H.454a.455.455,0,0,0-.445.546L.265,11.21a.454.454,0,0,0,.445.362h.511a3.067,3.067,0,0,0-.736,2,3,3,0,0,0,.949,2.255l.02.016V17.58a.682.682,0,0,0,.681.681H3.728a.682.682,0,0,0,.681-.681v-.7H13.33v.7a.682.682,0,0,0,.681.681H15.6a.682.682,0,0,0,.681-.681v-1.7a3.116,3.116,0,0,0,.2-4.31h.545a.453.453,0,0,0,.445-.362L17.73,9.97A.458.458,0,0,0,17.637,9.592Zm-13.1-1.67c1.74-1.145,6.917-1.145,8.656,0a5.616,5.616,0,0,1,1.171,2.215h-11A5.617,5.617,0,0,1,4.541,7.922ZM2.5,13.747a1.34,1.34,0,1,1,1.34,1.34A1.34,1.34,0,0,1,2.5,13.747Zm11.409,1.34a1.34,1.34,0,1,1,1.34-1.34A1.341,1.341,0,0,1,13.913,15.087Z" transform="translate(0 -5.707)"/></g></g></svg>